<svg width="150" height="150" viewBox="0 0 150 150" fill="none" xmlns="http://www.w3.org/2000/svg">
<circle cx="75" cy="75" r="75" fill="#672F1C"/>
<path d="M105.495 52.4625C104.099 51.0653 102.359 50.0604 100.451 49.5488C100.043 48.0408 99.3259 46.6343 98.3446 45.4189C97.3632 44.2034 96.1394 43.2057 94.7512 42.4893C93.363 41.7728 91.8408 41.3533 90.2816 41.2575C88.7223 41.1617 87.1602 41.3917 85.6948 41.9328C84.2293 42.4739 82.8926 43.3143 81.7698 44.4005C80.647 45.4866 79.7627 46.7947 79.1732 48.2414C78.5838 49.6881 78.3021 51.2417 78.3461 52.8033C78.3901 54.3648 78.7588 55.9001 79.4288 57.3113L76.3988 60.3488L76.2713 60.33C72.7951 59.8913 68.9363 60.15 65.1376 60.9C57.6376 62.385 49.5788 65.9513 44.5051 71.025C39.3826 76.1475 37.2676 82.1925 37.8076 88.2413C38.3401 94.1775 41.3851 99.7238 45.8326 104.168C50.2801 108.611 55.8226 111.664 61.7588 112.193C67.8076 112.736 73.8526 110.618 78.9788 105.495C84.0488 100.421 87.6188 92.37 89.1038 84.8625C89.8538 81.0675 90.1088 77.205 89.6738 73.7325L89.6551 73.605L92.6888 70.5675C95.0831 71.7061 97.8024 71.9628 100.367 71.2924C102.932 70.622 105.178 69.0676 106.709 66.9031C108.24 64.7387 108.958 62.1032 108.736 59.4614C108.514 56.8195 107.366 54.3409 105.495 52.4625Z" fill="white"/>
</svg>
