<svg width="150" height="150" viewBox="0 0 150 150" fill="none" xmlns="http://www.w3.org/2000/svg">
<circle cx="75" cy="75" r="75" fill="#672F1C"/>
<path d="M78.4809 37.4514C75.229 37.5305 70.2368 40.9407 66.352 44.5425C65.5434 45.2913 64.8051 46.0208 64.1196 46.7204C73.9985 47.151 83.3149 46.6571 92.561 45.9803C91.6645 45.1155 90.6274 44.1645 89.4672 43.1925C85.8637 40.1673 81.2758 37.3829 78.4809 37.4514ZM106.641 48.088C89.0629 49.3712 71.7133 51.3575 51.4633 48.8438C50.5493 49.7403 50.0747 50.5313 49.934 51.1817C49.811 51.8145 49.8989 52.3946 50.3208 53.1329C70.2719 57.5801 90.2231 57.6856 107.836 51.9727C107.924 51.4805 107.854 50.9708 107.643 50.3204C107.432 49.6524 107.063 48.8966 106.641 48.088ZM104.444 56.2794C88.7817 60.4805 71.6606 60.4454 54.5043 57.2286C50.3032 73.4532 42.1997 88.0606 44.4971 105.164L44.701 106.676L43.1946 106.94C41.4667 107.221 39.0057 108.75 37.5784 110.332C36.8629 111.123 36.42 111.914 36.3163 112.354C36.2126 112.775 36.151 112.6 36.3743 112.74C37.2848 113.356 40.0657 113.69 43.0241 113.232C45.9825 112.775 49.143 111.668 51.059 110.455L51.5864 110.121L52.2016 110.244C67.5297 113.145 81.4692 114.604 96.85 110.877L97.6059 110.684L98.2211 111.176C99.2055 111.984 102.387 112.652 105.674 112.758C108.663 112.863 111.616 112.67 113.62 112.582C113.426 112.055 113.04 111.246 112.459 110.385C111.721 109.33 110.79 108.24 109.911 107.414C109.014 106.588 108.082 106.113 107.959 106.078L106.395 105.779L106.711 104.215C109.893 88.5352 111.37 72.6622 104.444 56.2794ZM77.6372 62.502C88.061 62.502 96.3051 72.1173 96.3051 83.7012C96.3051 95.2852 88.061 104.9 77.6372 104.9C67.2133 104.9 58.9692 95.2852 58.9692 83.7012C58.9692 72.1173 67.2133 62.502 77.6372 62.502ZM77.6372 65.6661C69.1821 65.6661 62.1333 73.6114 62.1333 83.7012C62.1333 92.9649 68.0747 100.418 75.5981 101.578L75.9497 94.7052C70.5356 93.6505 68.9536 87.7794 68.936 85.6173C70.5708 85.793 74.2094 87.0762 76.1958 89.9766L76.4243 85.6876C70.9926 84.6505 69.4106 78.7618 69.393 76.5997C71.0102 76.7755 74.684 78.0587 76.6704 80.9942L76.8989 76.7227C73.77 75.4219 72.8032 71.6075 72.7856 70.1309C74.1918 70.2716 77.602 71.5723 78.7446 74.6133C80.2211 71.7305 83.7192 70.7989 85.1079 70.7989C84.9497 72.3458 83.5258 76.1778 80.0454 77.0216L79.8344 81.1173C82.102 78.4278 85.8637 77.5313 87.5161 77.5489C87.2524 79.6758 85.0903 85.3712 79.5883 85.8458L79.3598 90.17C81.6274 87.463 85.4067 86.5665 87.0415 86.5665C86.8129 88.6934 84.6333 94.4063 79.1137 94.8633L78.7622 101.684C86.7075 101.016 93.1411 93.3341 93.1411 83.7012C93.1411 73.6114 86.0922 65.6661 77.6372 65.6661Z" fill="white"/>
</svg>
