<svg width="150" height="150" viewBox="0 0 150 150" fill="none" xmlns="http://www.w3.org/2000/svg">
<circle cx="75" cy="75" r="75" fill="#672F1C"/>
<g clip-path="url(#clip0_502_846)">
<path d="M114.6 37.4398L117 40.9198C120.84 46.5598 121.02 53.5198 117.36 59.2798C111.72 68.2198 108.3 75.4798 107.22 80.9998C106.38 85.4398 105.78 90.0598 105.42 94.9798C104.94 101.28 100.74 107.04 94.1998 110.22L80.5798 116.82C67.0798 123.36 49.7998 119.46 41.9998 108.12L35.5198 98.6998C24.1198 82.0798 30.8998 60.8998 50.5798 51.3598L90.4798 31.9798C98.8798 27.8998 109.68 30.2998 114.6 37.4398ZM108.42 41.6998C105.66 37.7398 98.9398 36.1798 93.7198 38.7598L53.8798 58.0798C38.1598 65.6998 33.0598 81.7798 41.6998 94.4398L48.1798 103.86C53.8198 112.08 67.0198 115.08 77.2798 110.04L90.8998 103.44C95.1598 101.4 97.6798 97.9798 97.9198 94.4398C98.2798 89.2198 98.9398 84.2398 99.8998 79.5598C101.16 72.9598 104.94 64.9198 111 55.2598C113.04 52.0198 112.98 48.3598 110.82 45.1798L108.42 41.6998ZM102.24 45.8998L104.64 49.4398C105.12 50.1598 105.12 50.5798 104.7 51.2398C98.0998 61.6198 94.0198 70.3798 92.5198 78.1198C91.4998 83.0998 90.8398 88.3798 90.4198 93.8998C90.3598 94.6798 89.5198 95.7598 87.6598 96.7198L74.0398 103.32C67.0198 106.74 57.8398 104.7 54.3598 99.6598L47.8798 90.1798C41.9398 81.4798 45.4198 70.5598 57.1798 64.8598L97.0198 45.4798C98.9998 44.5198 101.7 45.1198 102.24 45.8998ZM64.4998 77.1598C63.6902 77.53 62.9725 78.0747 62.3981 78.7549C61.8238 79.435 61.407 80.2338 61.1776 81.0939C60.9482 81.9541 60.912 82.8543 61.0714 83.7302C61.2308 84.606 61.582 85.4357 62.0998 86.1598C62.0998 86.1598 62.0998 86.2198 62.1598 86.2798C64.4998 89.4598 68.9998 90.1198 72.1798 87.7798L75.7798 85.0798C78.6598 82.9798 80.2198 79.5598 79.9798 76.0198C79.9234 75.5649 79.8022 75.1204 79.6198 74.6998C79.4031 74.2159 79.0921 73.78 78.705 73.4176C78.3179 73.0552 77.8625 72.7736 77.3653 72.5892C76.8681 72.4049 76.3392 72.3215 75.8094 72.3439C75.2796 72.3663 74.7596 72.4941 74.2798 72.7198L64.4998 77.1598Z" fill="white"/>
</g>
<defs>
<clipPath id="clip0_502_846">
<rect width="90" height="90" fill="white" transform="translate(30 30)"/>
</clipPath>
</defs>
</svg>
