<svg width="150" height="150" viewBox="0 0 150 150" fill="none" xmlns="http://www.w3.org/2000/svg">
<circle cx="75" cy="75" r="75" fill="#672F1C"/>
<g clip-path="url(#clip0_796_818)">
<g clip-path="url(#clip1_796_818)">
<path d="M45.8333 79.625C45.8333 63.3825 49.5417 54.2229 56.2537 46.8804C42.9779 53.1104 31 61.6766 31 79.625C31 93.9762 42.4588 105.954 58.9979 110.812C54.6536 106.895 51.2228 102.071 48.948 96.6822C46.6732 91.2932 45.6099 85.4702 45.8333 79.625ZM120 79.625C120 61.825 108.022 53.2587 94.7092 47.0658C101.458 54.26 105.167 63.4195 105.167 79.625C105.367 85.4365 104.297 91.2218 102.029 96.5766C99.7617 101.931 96.3523 106.726 92.0392 110.627C108.541 105.806 120 93.8279 120 79.625Z" fill="white"/>
<path d="M88.6278 79.6251C88.6278 93.9763 86.1432 105.583 82.2495 111.925C93.3745 108.216 101.422 95.3484 101.422 79.6251C101.422 60.0451 96.267 51.8496 85.4757 43.7284L86.0691 39.5751L87.8491 27.7084C87.8832 27.4649 87.869 27.2171 87.8073 26.9791C87.7456 26.7411 87.6376 26.5176 87.4896 26.3213C87.3415 26.125 87.1562 25.9598 86.9443 25.8351C86.7324 25.7104 86.498 25.6287 86.2545 25.5946C86.011 25.5606 85.7632 25.5748 85.5252 25.6364C85.2872 25.6981 85.0636 25.8061 84.8674 25.9542C84.6711 26.1022 84.5059 26.2875 84.3812 26.4994C84.2565 26.7113 84.1748 26.9457 84.1407 27.1892L82.3237 39.5009L82.1012 41.0584V41.9113L79.5795 41.3551C84.1778 47.2884 88.6278 62.7521 88.6278 79.6251ZM65.5249 43.7655C54.7337 51.8867 49.542 60.0821 49.542 79.6251C49.542 95.3484 57.552 108.179 68.7141 111.925C64.8574 105.583 62.3728 94.0134 62.3728 79.6251C62.1237 67.817 64.3731 56.0896 68.9737 45.2117C69.0719 45.0577 69.1587 44.8965 69.2332 44.7296C69.8513 43.4898 70.5838 42.3104 71.4212 41.2067C70.6053 41.2067 69.7895 41.5034 68.9737 41.7259V40.873L68.7512 39.3155L66.8228 27.0409C66.754 26.5491 66.4926 26.1049 66.0962 25.8058C65.6998 25.5068 65.2008 25.3775 64.7091 25.4463C64.2173 25.5152 63.7731 25.7765 63.474 26.1729C63.175 26.5693 63.0456 27.0683 63.1145 27.5601L64.8945 39.6121L65.5249 43.7655Z" fill="white"/>
<path d="M73.6462 44.2846C70.6053 49.0684 66.2295 61.8251 66.2295 79.6621C66.2295 100.021 71.2357 111.739 75.0182 113.037H76.2791C79.9874 111.85 85.0678 100.132 85.0678 79.6621C85.5204 67.5006 82.9733 55.4146 77.6512 44.4701V25.9284C77.6512 25.4366 77.4558 24.965 77.1081 24.6173C76.7604 24.2696 76.2887 24.0742 75.797 24.0742C75.3052 24.0742 74.8336 24.2696 74.4859 24.6173C74.1382 24.965 73.9428 25.4366 73.9428 25.9284L73.6462 44.2846Z" fill="white"/>
</g>
</g>
<defs>
<clipPath id="clip0_796_818">
<rect width="90" height="90" fill="white" transform="translate(30 30)"/>
</clipPath>
<clipPath id="clip1_796_818">
<rect width="89" height="89" fill="white" transform="translate(31 24)"/>
</clipPath>
</defs>
</svg>
