<svg width="150" height="150" viewBox="0 0 150 150" fill="none" xmlns="http://www.w3.org/2000/svg">
<circle cx="75" cy="75" r="75" fill="#672F1C"/>
<path d="M86.6572 52.3481C87.1743 52.3481 87.6863 52.2463 88.164 52.0484C88.6418 51.8505 89.0758 51.5605 89.4415 51.1949C89.8071 50.8292 90.0971 50.3952 90.295 49.9175C90.4929 49.4397 90.5947 48.9277 90.5947 48.4106C90.5947 47.8936 90.4929 47.3815 90.295 46.9038C90.0971 46.4261 89.8071 45.992 89.4415 45.6264C89.0758 45.2608 88.6418 44.9707 88.164 44.7729C87.6863 44.575 87.1743 44.4731 86.6572 44.4731C85.6129 44.4731 84.6114 44.888 83.873 45.6264C83.1346 46.3648 82.7197 47.3664 82.7197 48.4106C82.7197 49.4549 83.1346 50.4565 83.873 51.1949C84.6114 51.9333 85.6129 52.3481 86.6572 52.3481ZM87.6697 67.9575C87.6697 69.3226 87.1275 70.6317 86.1622 71.5969C85.197 72.5621 83.8879 73.1044 82.5229 73.1044C81.1578 73.1044 79.8487 72.5621 78.8835 71.5969C77.9182 70.6317 77.376 69.3226 77.376 67.9575C77.376 66.5925 77.9182 65.2834 78.8835 64.3181C79.8487 63.3529 81.1578 62.8106 82.5229 62.8106C83.8879 62.8106 85.197 63.3529 86.1622 64.3181C87.1275 65.2834 87.6697 66.5925 87.6697 67.9575ZM63.3416 83.4544C63.3416 84.7075 62.8438 85.9094 61.9577 86.7955C61.0716 87.6816 59.8697 88.1794 58.6166 88.1794C57.3635 88.1794 56.1616 87.6816 55.2755 86.7955C54.3894 85.9094 53.8916 84.7075 53.8916 83.4544C53.8916 82.2012 54.3894 80.9994 55.2755 80.1133C56.1616 79.2272 57.3635 78.7294 58.6166 78.7294C59.8697 78.7294 61.0716 79.2272 61.9577 80.1133C62.8438 80.9994 63.3416 82.2012 63.3416 83.4544ZM62.301 100.414C63.1662 100.414 63.9961 100.07 64.6079 99.4582C65.2197 98.8464 65.5635 98.0165 65.5635 97.1513C65.5635 96.286 65.2197 95.4562 64.6079 94.8443C63.9961 94.2325 63.1662 93.8888 62.301 93.8888C61.4357 93.8888 60.6059 94.2325 59.994 94.8443C59.3822 95.4562 59.0385 96.286 59.0385 97.1513C59.0385 98.0165 59.3822 98.8464 59.994 99.4582C60.6059 100.07 61.4357 100.414 62.301 100.414ZM102.66 71.22C102.66 72.0853 102.317 72.9151 101.705 73.527C101.093 74.1388 100.263 74.4825 99.3979 74.4825C98.5326 74.4825 97.7028 74.1388 97.0909 73.527C96.4791 72.9151 96.1353 72.0853 96.1353 71.22C96.1353 70.3548 96.4791 69.5249 97.0909 68.9131C97.7028 68.3012 98.5326 67.9575 99.3979 67.9575C100.263 67.9575 101.093 68.3012 101.705 68.9131C102.317 69.5249 102.66 70.3548 102.66 71.22Z" fill="white"/>
<path d="M97.1117 35.684C90.7926 32.7079 83.6354 32.0212 76.8658 33.7416C70.0961 35.462 64.1351 39.4824 60.0036 45.1143L45.2661 65.1956C33.1077 81.7556 39.1124 105.302 57.6974 114.04C74.1055 121.763 93.6186 114.62 101.218 98.1918C103.486 93.2962 105.748 88.3978 108.005 83.4965L111.652 75.5737C118.571 60.555 112.088 42.7518 97.1117 35.684ZM64.5402 48.4415C67.8994 43.863 72.7457 40.5944 78.2493 39.1952C83.753 37.7961 89.5718 38.3534 94.7099 40.7718C106.902 46.5262 112.173 61.0106 106.548 73.2197L102.9 81.1397V81.1453C101.072 85.1109 101.03 85.2065 96.1133 95.8265C89.8217 109.436 73.6695 115.34 60.0964 108.95C44.7092 101.713 39.7424 82.2253 49.8027 68.5228L64.5402 48.4415Z" fill="white"/>
</svg>
