<svg width="150" height="150" viewBox="0 0 150 150" fill="none" xmlns="http://www.w3.org/2000/svg">
<circle cx="75" cy="75" r="75" fill="#672F1C"/>
<g clip-path="url(#clip0_796_929)">
<path d="M105.5 78.7499H34.2501C33.6915 78.7397 33.1377 78.8545 32.6291 79.0858C32.1206 79.3171 31.6701 79.659 31.3107 80.0868C30.9513 80.5145 30.692 81.0171 30.5517 81.5579C30.4115 82.0987 30.3938 82.6639 30.5001 83.2124C31.6426 89.0725 34.2158 94.5593 37.9907 99.1848C41.7657 103.81 46.6254 107.431 52.1376 109.725C52.572 109.901 52.9247 110.234 53.126 110.657C53.3273 111.081 53.3626 111.564 53.2251 112.012C52.8489 113.393 52.6721 114.82 52.7001 116.25C52.7001 117.244 53.0952 118.198 53.7984 118.902C54.5017 119.605 55.4555 120 56.4501 120H83.3376C84.3321 120 85.286 119.605 85.9892 118.902C86.6925 118.198 87.0876 117.244 87.0876 116.25C87.079 114.814 86.8643 113.387 86.4501 112.012C86.3212 111.564 86.3606 111.084 86.5609 110.663C86.7612 110.242 87.1085 109.908 87.5376 109.725C93.0637 107.441 97.9386 103.825 101.727 99.1985C105.516 94.5724 108.1 89.0803 109.25 83.2124C109.356 82.6639 109.339 82.0987 109.198 81.5579C109.058 81.0171 108.799 80.5145 108.439 80.0868C108.08 79.659 107.63 79.3171 107.121 79.0858C106.612 78.8545 106.059 78.7397 105.5 78.7499ZM120.013 46.9499L113.788 33.2999C113.485 32.6262 113.051 32.0202 112.509 31.5177C111.968 31.0153 111.332 30.6266 110.638 30.3749C109.961 30.0882 109.234 29.9404 108.5 29.9404C107.766 29.9404 107.039 30.0882 106.363 30.3749L85.0251 40.1999C83.892 40.708 83.0069 41.6449 82.564 42.805C82.121 43.9651 82.1565 45.2535 82.6626 46.3874L89.6751 61.7624C90.0457 62.5839 90.6471 63.28 91.4061 63.766C92.165 64.252 93.0489 64.507 93.9501 64.4999C94.6101 64.5043 95.263 64.3635 95.8626 64.0874L117.2 54.4124C118.558 53.791 119.616 52.658 120.143 51.2603C120.67 49.8625 120.623 48.3133 120.013 46.9499ZM64.2501 54.3749C64.2501 55.8668 64.8427 57.2975 65.8976 58.3524C66.9525 59.4073 68.3832 59.9999 69.8751 59.9999C71.3669 59.9999 72.7977 59.4073 73.8526 58.3524C74.9074 57.2975 75.5001 55.8668 75.5001 54.3749C75.5001 52.8831 74.9074 51.4523 73.8526 50.3974C72.7977 49.3426 71.3669 48.7499 69.8751 48.7499C68.3832 48.7499 66.9525 49.3426 65.8976 50.3974C64.8427 51.4523 64.2501 52.8831 64.2501 54.3749ZM71.7501 67.4999C71.7501 68.2386 71.8956 68.9701 72.1782 69.6525C72.4609 70.335 72.8753 70.9551 73.3976 71.4774C73.9199 71.9997 74.54 72.4141 75.2225 72.6967C75.9049 72.9794 76.6364 73.1249 77.3751 73.1249C78.1138 73.1249 78.8452 72.9794 79.5277 72.6967C80.2101 72.4141 80.8302 71.9997 81.3526 71.4774C81.8749 70.9551 82.2892 70.335 82.5719 69.6525C82.8546 68.9701 83.0001 68.2386 83.0001 67.4999C83.0001 66.7612 82.8546 66.0298 82.5719 65.3473C82.2892 64.6649 81.8749 64.0448 81.3526 63.5224C80.8302 63.0001 80.2101 62.5858 79.5277 62.3031C78.8452 62.0204 78.1138 61.8749 77.3751 61.8749C76.6364 61.8749 75.9049 62.0204 75.2225 62.3031C74.54 62.5858 73.9199 63.0001 73.3976 63.5224C72.8753 64.0448 72.4609 64.6649 72.1782 65.3473C71.8956 66.0298 71.7501 66.7612 71.7501 67.4999ZM56.7501 67.4999C56.7501 68.9918 57.3427 70.4225 58.3976 71.4774C59.4525 72.5323 60.8832 73.1249 62.3751 73.1249C63.8669 73.1249 65.2977 72.5323 66.3526 71.4774C67.4074 70.4225 68.0001 68.9918 68.0001 67.4999C68.0001 66.0081 67.4074 64.5773 66.3526 63.5224C65.2977 62.4676 63.8669 61.8749 62.3751 61.8749C60.8832 61.8749 59.4525 62.4676 58.3976 63.5224C57.3427 64.5773 56.7501 66.0081 56.7501 67.4999Z" fill="white"/>
</g>
<defs>
<clipPath id="clip0_796_929">
<rect width="90" height="90" fill="white" transform="translate(30.5 30)"/>
</clipPath>
</defs>
</svg>
