<svg width="150" height="150" viewBox="0 0 150 150" fill="none" xmlns="http://www.w3.org/2000/svg">
<circle cx="75" cy="75" r="75" fill="#672F1C"/>
<path d="M92.925 73.725C89.475 69.975 86.25 66.4125 86.25 63.75V50.625C86.25 50.1277 86.0525 49.6508 85.7008 49.2992C85.3492 48.9475 84.8723 48.75 84.375 48.75H65.625C65.1277 48.75 64.6508 48.9475 64.2992 49.2992C63.9475 49.6508 63.75 50.1277 63.75 50.625V63.75C63.75 66.4125 60.525 69.975 57.075 73.725C52.275 79.0125 46.875 84.975 46.875 91.875C47.0109 99.6436 47.9789 107.375 49.7625 114.937C50.1621 116.363 51.0073 117.624 52.1746 118.534C53.3419 119.445 54.77 119.959 56.25 120H93.75C95.23 119.959 96.6581 119.445 97.8254 118.534C98.9927 117.624 99.8379 116.363 100.237 114.937C102.021 107.375 102.989 99.6436 103.125 91.875C103.125 84.975 97.725 79.0125 92.925 73.725ZM65.625 43.125H84.375C84.8723 43.125 85.3492 42.9275 85.7008 42.5758C86.0525 42.2242 86.25 41.7473 86.25 41.25V33.75C86.25 32.7554 85.8549 31.8016 85.1516 31.0983C84.4484 30.3951 83.4946 30 82.5 30H67.5C66.5054 30 65.5516 30.3951 64.8484 31.0983C64.1451 31.8016 63.75 32.7554 63.75 33.75V41.25C63.75 41.7473 63.9475 42.2242 64.2992 42.5758C64.6508 42.9275 65.1277 43.125 65.625 43.125Z" fill="white"/>
</svg>
