<svg width="150" height="150" viewBox="0 0 150 150" fill="none" xmlns="http://www.w3.org/2000/svg">
<circle cx="75" cy="75" r="75" fill="#672F1C"/>
<g filter="url(#filter0_d_49_952)">
<path fill-rule="evenodd" clip-rule="evenodd" d="M53.616 93.421C53.7796 91.1737 54.4332 87.8233 57.4977 83.6556C60.5622 79.488 66.0372 74.503 73.1058 70.1721C80.1745 65.8409 88.8367 62.1637 96.559 59.5897C104.281 57.0154 111.064 55.5445 116.662 55.5037C122.259 55.4628 126.672 56.8521 130.104 59.2627C133.536 61.6734 135.988 65.1056 137.214 69.2732C138.439 73.4408 138.439 78.3439 135.702 83.1653C132.964 87.9866 127.489 92.7263 119.93 97.5477C112.371 102.369 102.729 107.272 94.7202 110.091C86.7119 112.911 80.3378 113.646 74.495 113.033C68.6522 112.42 63.3405 110.459 60.0309 107.722C56.7214 104.984 55.4138 101.47 54.5967 99.1414C53.7796 96.8123 53.4526 95.6683 53.616 93.4211V93.421Z" fill="#874412"/>
<path fill-rule="evenodd" clip-rule="evenodd" d="M114.463 55.5886C116.449 58.245 119.299 60.8518 121.111 63.2118C124.039 67.0267 124.254 70.1969 121.826 74.2518C119.398 78.3068 114.326 83.2464 107.406 87.8441C100.486 92.4416 91.7163 96.6971 84.1772 99.4392C76.6381 102.181 70.3295 103.41 64.596 103.541C61.569 103.61 58.7027 103.373 56.3503 103.225C57.1955 104.753 58.3573 106.337 60.0315 107.722C63.3411 110.459 68.6528 112.42 74.4956 113.033C80.3384 113.646 86.7125 112.911 94.7208 110.091C102.729 107.272 112.372 102.369 119.931 97.5477C127.49 92.7264 132.965 87.9866 135.702 83.1653C138.44 78.3439 138.44 73.4408 137.214 69.2732C135.989 65.1056 133.537 61.6734 130.105 59.2627C126.673 56.8521 122.26 55.4628 116.662 55.5037C115.948 55.5089 115.215 55.5375 114.463 55.5886L114.463 55.5886Z" fill="#874412"/>
<path fill-rule="evenodd" clip-rule="evenodd" d="M62.7581 85.2149C64.5044 84.3283 67.7284 82.0716 70.1731 80.5134C72.6179 78.955 74.2837 78.0955 75.7882 77.6925C77.2927 77.2894 78.6358 77.3433 80.2747 76.6179C81.9135 75.8925 83.8479 74.388 85.3255 73.0446C86.8032 71.7013 87.8239 70.5194 88.3612 69.6059C88.8986 68.6925 88.9524 68.0476 88.8181 67.8059C88.6837 67.5641 88.3614 67.7253 87.448 68.585C86.5345 69.4446 85.0301 71.0029 83.606 72.2655C82.1822 73.5282 80.8389 74.4954 79.6568 75.0597C78.4747 75.6238 77.4539 75.7849 76.2987 76C75.1434 76.2148 73.8539 76.4835 72.0539 77.3433C70.2539 78.203 67.9433 79.6537 65.9285 81.0508C63.9136 82.4478 62.1941 83.791 61.4687 84.7044C60.7434 85.6178 61.0119 86.1015 62.7581 85.2149H62.7581Z" fill="#944F1B"/>
<path fill-rule="evenodd" clip-rule="evenodd" d="M71.9194 96.6063C74.4985 95.6122 80.6239 92.7106 88.0924 89.4062C95.5612 86.1017 104.373 82.3941 110.069 79.842C115.764 77.2898 118.343 75.8926 119.525 75.0331C120.708 74.1733 120.493 73.8508 118.934 74.227C117.376 74.6031 114.475 75.6778 109.854 77.5585C105.233 79.4391 98.8926 82.1255 93.7074 84.4629C88.5223 86.8002 84.4926 88.7882 80.9462 90.615C77.4 92.4419 74.3374 94.1077 72.3223 95.3973C70.3075 96.6868 69.3404 97.6003 71.9195 96.6063H71.9194Z" fill="#944F1B"/>
<path fill-rule="evenodd" clip-rule="evenodd" d="M68.239 88.8685C70.2002 88.3043 73.9612 86.1551 78.9046 83.9253C83.848 81.6955 89.9732 79.3849 95.8836 77.2625C101.794 75.1401 107.49 73.2059 110.176 72.0776C112.863 70.9492 112.541 70.6266 110.499 71.0029C108.457 71.3789 104.696 72.4535 102.788 72.6417C100.881 72.8297 100.827 72.1312 104.239 70.5998C107.651 69.0685 114.529 66.7044 117.914 65.3879C121.299 64.0715 121.191 63.8027 119.445 64.179C117.699 64.555 114.313 65.5759 110.23 66.8117C106.146 68.0475 101.364 69.4983 99.2419 70.6805C97.1196 71.8625 97.6568 72.776 97.8986 73.3403C98.1405 73.9044 98.0867 74.1194 96.9852 74.3074C95.8838 74.4955 93.7344 74.6566 88.388 76.8328C83.0418 79.0089 74.4986 83.1998 70.3075 85.8059C66.1164 88.4119 66.2778 89.4327 68.2389 88.8686L68.239 88.8685Z" fill="#944F1B"/>
<path fill-rule="evenodd" clip-rule="evenodd" d="M59.4266 94.1343C60.0445 92.9254 61.3878 91.2058 62.6236 91.2058C63.8594 91.2058 64.9878 92.9253 65.0952 94.2954C65.2027 95.6656 64.2893 96.6864 63.1072 97.0357C61.9251 97.3849 60.4744 97.0625 59.6952 96.5521C58.9161 96.0416 58.8088 95.3432 59.4266 94.1342V94.1343Z" fill="#944F1B"/>
<path fill-rule="evenodd" clip-rule="evenodd" d="M12.0408 74.918C12.2044 72.6707 12.858 69.3203 15.9225 65.1526C18.987 60.985 24.462 56.0001 31.5306 51.6691C38.5993 47.3379 47.2615 43.6607 54.9838 41.0867C62.7062 38.5124 69.4888 37.0415 75.0864 37.0008C80.6842 36.9598 85.0969 38.3491 88.529 40.7598C91.9612 43.1705 94.4128 46.6027 95.6385 50.7703C96.8642 54.9379 96.8642 59.841 94.1266 64.6624C91.3892 69.4836 85.914 74.2234 78.355 79.0448C70.7962 83.8661 61.1536 88.7692 53.145 91.5884C45.1367 94.4077 38.7626 95.1432 32.9198 94.5303C27.077 93.9174 21.7653 91.9562 18.4558 89.2188C15.1462 86.4812 13.8386 82.9672 13.0215 80.6384C12.2044 78.3093 11.8774 77.1653 12.0408 74.9181V74.918Z" fill="#874412"/>
<path fill-rule="evenodd" clip-rule="evenodd" d="M72.8866 37.0856C74.8733 39.742 77.7229 42.3488 79.5344 44.7088C82.4627 48.5237 82.6778 51.6939 80.2496 55.7488C77.8215 59.8037 72.7502 64.7433 65.8298 69.341C58.9095 73.9385 50.1401 78.194 42.601 80.9362C35.062 83.6783 28.7533 84.907 23.0199 85.0379C19.9928 85.107 17.1266 84.8702 14.7742 84.7219C15.6194 86.2504 16.7812 87.8339 18.4554 89.2188C21.7649 91.9563 27.0766 93.9175 32.9194 94.5303C38.7622 95.1432 45.1363 94.4077 53.1446 91.5884C61.1532 88.7692 70.7958 83.8661 78.3546 79.0448C85.9136 74.2234 91.3888 69.4837 94.1262 64.6624C96.8638 59.841 96.8638 54.9379 95.6381 50.7703C94.4124 46.6027 91.9608 43.1705 88.5287 40.7598C85.0965 38.3491 80.6838 36.9598 75.0861 37.0008C74.3721 37.006 73.6386 37.0346 72.8865 37.0856L72.8866 37.0856Z" fill="#743F1A"/>
<path fill-rule="evenodd" clip-rule="evenodd" d="M21.1821 66.712C22.9284 65.8254 26.1525 63.5687 28.5972 62.0105C31.0419 60.4522 32.7078 59.5926 34.2123 59.1895C35.7168 58.7865 37.0599 58.8403 38.6987 58.1149C40.3375 57.3895 42.272 55.8851 43.7496 54.5417C45.2272 53.1983 46.248 52.0164 46.7853 51.103C47.3226 50.1896 47.3764 49.5446 47.2422 49.303C47.1078 49.0612 46.7855 49.2223 45.872 50.0821C44.9586 50.9417 43.4541 52.5 42.0301 53.7626C40.6063 55.0252 39.263 55.9925 38.0809 56.5567C36.8988 57.1208 35.878 57.282 34.7227 57.497C33.5675 57.7118 32.278 57.9805 30.478 58.8403C28.678 59.7001 26.3674 61.1507 24.3525 62.5478C22.3377 63.9448 20.6182 65.288 19.8927 66.2014C19.1675 67.1148 19.436 67.5986 21.1822 66.7119L21.1821 66.712Z" fill="#944F1B"/>
<path fill-rule="evenodd" clip-rule="evenodd" d="M30.3435 78.1032C32.9226 77.1091 39.0479 74.2075 46.5165 70.9031C53.9853 67.5986 62.7974 63.891 68.4928 61.3389C74.1884 58.7867 76.7674 57.3895 77.9496 56.5299C79.1317 55.6702 78.9167 55.3476 77.3585 55.7238C75.8003 56.0999 72.8987 57.1746 68.2778 59.0554C63.657 60.9359 57.3166 63.6224 52.1314 65.9597C46.9464 68.297 42.9167 70.285 39.3703 72.1119C35.8241 73.9388 32.7615 75.6046 30.7464 76.8942C28.7315 78.1837 27.7644 79.0971 30.3436 78.1032H30.3435Z" fill="#944F1B"/>
<path fill-rule="evenodd" clip-rule="evenodd" d="M26.663 70.3657C28.6242 69.8015 32.3853 67.6522 37.3286 65.4225C42.272 63.1926 48.3972 60.882 54.3077 58.7597C60.2183 56.6373 65.9137 54.7031 68.6004 53.5748C71.287 52.4464 70.9646 52.1238 68.9227 52.5C66.881 52.876 63.1198 53.9507 61.2123 54.1389C59.3049 54.3269 59.2511 53.6283 62.6631 52.097C66.0751 50.5657 72.9526 48.2016 76.3376 46.8851C79.7228 45.5686 79.6153 45.2999 77.8689 45.6761C76.1227 46.0522 72.7375 47.0731 68.654 48.3089C64.5704 49.5447 59.7884 50.9956 57.666 52.1777C55.5436 53.3596 56.0809 54.2733 56.3227 54.8375C56.5646 55.4016 56.5107 55.6166 55.4093 55.8046C54.3078 55.9926 52.1584 56.1538 46.8121 58.33C41.4659 60.506 32.9227 64.697 28.7316 67.3031C24.5404 69.909 24.7018 70.9298 26.663 70.3657V70.3657Z" fill="#944F1B"/>
<path fill-rule="evenodd" clip-rule="evenodd" d="M17.8505 75.6315C18.4684 74.4225 19.8117 72.703 21.0475 72.703C22.2832 72.703 23.4117 74.4225 23.519 75.7926C23.6265 77.1628 22.7131 78.1835 21.531 78.533C20.3489 78.8822 18.8982 78.5598 18.119 78.0494C17.3399 77.5389 17.2326 76.8404 17.8505 75.6315Z" fill="#944F1B"/>
</g>
<defs>
<filter id="filter0_d_49_952" x="8" y="36.9999" width="134" height="84.2345" filterUnits="userSpaceOnUse" color-interpolation-filters="sRGB">
<feFlood flood-opacity="0" result="BackgroundImageFix"/>
<feColorMatrix in="SourceAlpha" type="matrix" values="0 0 0 0 0 0 0 0 0 0 0 0 0 0 0 0 0 0 127 0" result="hardAlpha"/>
<feOffset dy="4"/>
<feGaussianBlur stdDeviation="2"/>
<feComposite in2="hardAlpha" operator="out"/>
<feColorMatrix type="matrix" values="0 0 0 0 0 0 0 0 0 0 0 0 0 0 0 0 0 0 0.25 0"/>
<feBlend mode="normal" in2="BackgroundImageFix" result="effect1_dropShadow_49_952"/>
<feBlend mode="normal" in="SourceGraphic" in2="effect1_dropShadow_49_952" result="shape"/>
</filter>
</defs>
</svg>
