<svg width="150" height="150" viewBox="0 0 150 150" fill="none" xmlns="http://www.w3.org/2000/svg">
<circle cx="75" cy="75" r="75" fill="#672F1C"/>
<path fill-rule="evenodd" clip-rule="evenodd" d="M103.31 33.7992C106.678 33.992 109.841 35.3742 112.49 38.0163C115.138 40.6584 116.507 43.8277 116.707 47.1963C116.9 50.4942 115.961 53.792 114.341 56.8263C113.66 58.0432 113.482 59.4785 113.846 60.8249C117.684 73.5599 116.16 89.9977 103.329 102.829C90.491 115.667 74.0467 117.184 61.3052 113.34C59.9589 112.976 58.5236 113.154 57.3067 113.835C54.2724 115.455 50.981 116.393 47.6831 116.201C44.2051 115.988 40.9326 114.481 38.5095 111.977C36.0063 109.551 34.5018 106.276 34.2924 102.797C34.0995 99.4863 35.0445 96.1949 36.671 93.1542C37.3505 91.939 37.5281 90.5063 37.166 89.162C33.341 76.4334 34.871 60.0149 47.6959 47.1963C60.521 34.3649 76.946 32.8413 89.6745 36.6727C91.0217 37.0347 92.457 36.8547 93.6731 36.1713C96.7074 34.5513 100.005 33.5999 103.31 33.7992ZM62.9831 61.4613C69.2702 55.1742 77.2417 54.3899 83.5995 56.2992C84.2105 56.499 84.8553 56.5746 85.4959 56.5216C86.1366 56.4685 86.7602 56.2879 87.33 55.9904C87.8998 55.6928 88.4044 55.2843 88.814 54.7889C89.2236 54.2935 89.5301 53.7211 89.7152 53.1055C89.9004 52.49 89.9607 51.8435 89.8924 51.2043C89.8241 50.5651 89.6286 49.9461 89.3176 49.3835C89.0065 48.8209 88.5861 48.3263 88.081 47.9286C87.576 47.5309 86.9965 47.2382 86.3767 47.0677C77.2545 44.3227 65.4002 45.4092 56.1624 54.6406C51.5875 59.1308 48.5881 64.9807 47.6124 71.3163C47.4189 72.5805 47.7355 73.8699 48.4926 74.9006C49.2497 75.9314 50.3853 76.6192 51.6495 76.8127C52.9138 77.0062 54.2031 76.6896 55.2339 75.9325C56.2646 75.1754 56.9524 74.0398 57.146 72.7756C57.8113 68.4703 59.8603 64.4987 62.9831 61.4613Z" fill="white"/>
</svg>
