<svg width="150" height="150" viewBox="0 0 150 150" fill="none" xmlns="http://www.w3.org/2000/svg">
<circle cx="75" cy="75" r="75" fill="#672F1C"/>
<path d="M75 45C63.2062 45 53.1375 49.5413 50.5988 58.9275C49.8326 61.7383 49.2859 64.6045 48.9638 67.5H101.036C100.715 64.6096 100.169 61.7485 99.405 58.9425C96.8662 49.545 86.805 45 75 45ZM41.43 67.5C41.73 64.1775 42.3938 60.5287 43.3575 56.9662C47.2688 42.5288 62.115 37.5 75 37.5C87.9 37.5 102.739 42.5363 106.646 56.985C107.606 60.54 108.27 64.185 108.57 67.5H112.5V75C112.5 95.7113 95.7113 112.5 75 112.5C54.2888 112.5 37.5 95.7113 37.5 75V67.5H41.43ZM71.2425 48.7425H78.7575V56.2575H71.2425V48.7425ZM59.9925 56.2425H67.5075V63.7575H59.9925V56.2425ZM82.4925 56.2425H90.0075V63.7575H82.4925V56.2425Z" fill="white"/>
</svg>
