<svg width="150" height="150" viewBox="0 0 150 150" fill="none" xmlns="http://www.w3.org/2000/svg">
<circle cx="75" cy="75" r="75" fill="#672F1C"/>
<path d="M95.504 67.8042C93.5815 70.236 90.8485 71.8954 87.804 72.4792M95.504 67.8042C100.954 60.8459 96.5748 51.4792 89.9623 48.9667C91.729 41 82.779 33.3334 69.8373 33.3334C73.3248 35.5584 74.529 38.2959 74.4082 40.85C73.779 54.2167 48.6415 46.7917 52.0832 68.0084M95.504 67.8042C103.558 67.8042 112.962 78.325 105.775 87.5M44.1665 87.5C37.8457 79.4334 44.629 69.3334 52.0832 68.0084M52.0832 68.0084C55.6082 67.3834 59.4582 68.1375 62.504 70.5209M89.9665 48.9667C89.2832 52.0625 86.9832 55.2 82.6748 57.9542" stroke="white" stroke-width="1.5" stroke-linecap="round" stroke-linejoin="round"/>
<path d="M37.4999 87.5L40.9499 98.9042C43.5374 107.462 44.8333 111.738 48.1499 114.204C51.4708 116.667 55.9416 116.667 64.8791 116.667H85.1208C94.0624 116.667 98.5291 116.667 101.85 114.204C105.171 111.742 106.462 107.462 109.05 98.9042L112.5 87.5M33.3333 87.5H116.667" stroke="white" stroke-width="1.5" stroke-linecap="round"/>
</svg>
